<svg xmlns="http://www.w3.org/2000/svg" fill="currentColor" viewBox="0 0 14 14"><path fill="currentColor" d="m7 8.4-4.9 4.9a.948.948 0 0 1-.7.275.948.948 0 0 1-.7-.275.948.948 0 0 1-.275-.7c0-.283.092-.517.275-.7L5.6 7 .7 2.1a.948.948 0 0 1-.275-.7c0-.283.092-.517.275-.7a.948.948 0 0 1 .7-.275c.283 0 .517.092.7.275L7 5.6 11.9.7a.948.948 0 0 1 .7-.275c.283 0 .517.092.7.275a.948.948 0 0 1 .275.7.948.948 0 0 1-.275.7L8.4 7l4.9 4.9a.949.949 0 0 1 .275.7.948.948 0 0 1-.275.7.948.948 0 0 1-.7.275.948.948 0 0 1-.7-.275L7 8.4Z"/></svg>