<svg xmlns="http://www.w3.org/2000/svg" xml:space="preserve" id="Layer_1" x="0" y="0" version="1.1" viewBox="0 0 183 40"><style>.st0{fill:#003057}</style><path d="M19.5 37.3c-2.1 0-4.1-.4-6.1-1.1-2.9-1.2-5.3-3.4-6.9-6.1-1.5-3-2.2-6.3-1.9-9.6.7-11 13.7-13.9 18.5-7.7 4.8 6.2-3 10.7-3.2 8-.4-6.6-5.8-4.3-6-.3-.6 11.9 19.2 10.5 19.5-2.9.1-7.9-5.3-12.9-8-15.1 4 1.4 7.3 4.1 9.5 7.8 2.1 3.6 2.9 7.9 2.2 12-.7 4.2-2.9 7.9-6.1 10.6s-7.3 4.4-11.5 4.4m0-37.3c-3.9 0-7.6 1.1-10.8 3.3C5.5 5.4 3 8.4 1.5 12 0 15.5-.4 19.4.4 23.2c.7 3.8 2.6 7.3 5.3 10 2.7 2.7 6.2 4.6 10 5.3 3.8.8 7.7.4 11.3-1.1 3.6-1.5 6.6-4 8.7-7.2 2.1-3.2 3.3-7 3.3-10.8 0-5.2-2.1-10.1-5.7-13.8S24.6 0 19.5 0zM43.2 6h22.7v6.8h-7v20.8h-8.7V12.9h-7V6z" class="st0"/><path d="M63.4 19.5c.1-1.1.5-2.2 1.1-3.2.6-.9 1.5-1.7 2.5-2.2 2.3-1 4.8-1.5 7.3-1.4 9.6 0 9.6 5 9.6 7.4v11c-.1.4 0 .9.1 1.3s.3.8.6 1.2h-7.9V32c-1.9 1.4-4.3 2.1-6.7 2-5.1 0-7.3-3.1-7.3-6.5 0-.8.1-1.6.4-2.3.3-.7.7-1.4 1.3-2 1.8-1.9 4-2.2 7.6-2.7 1.5-.2 2.9-.5 4.3-.9 0-1.4-.4-2.3-2.7-2.3-1.8 0-2.3.5-2.6 1.9l-7.6.3zM73.9 25c-.7.1-1.4.3-2.1.5-.4.1-.8.3-1.1.6-.3.3-.5.7-.5 1.2 0 .2.1.5.2.7.1.2.3.4.5.5s.4.3.6.3c.2.1.5.1.7 0 .8 0 1.5-.2 2.2-.6.7-.4 1.2-1 1.6-1.7.3-.8.4-1.6.4-2.4-.9.4-1.7.7-2.5.9zM93.6 15.2c2.2-2 3.7-2.2 6.8-2.2v6.8c-.5 0-1.1-.1-1.6-.1-4.7 0-4.8 3.1-4.8 4.4v9.5h-8V13.3h7.7v1.9zM102.4 6.1h8.1v13.1l5.5-5.8h9.8l-7.7 7.3 8 12.9H117l-4.4-7.7-2.1 2v5.7h-8V6.1z" class="st0"/><path d="M147.1 28.9c-1.1 1.8-2.7 3.2-4.6 4.2-1.9 1-4 1.4-6.1 1.3-7.5 0-11.2-5.4-11.2-11 0-6.6 4.6-10.9 11.1-10.9 3-.1 5.9 1 8.1 3 3 2.9 3 6.3 3.1 9.4h-14.1c0 .5 0 1 .2 1.5s.4.9.8 1.3c.3.3.7.6 1.1.7.4.2.9.2 1.3.2.8 0 1.6-.2 2.3-.7s1.2-1.1 1.4-1.9l6.6 2.9zm-7.8-8.2c0-.3-.1-.6-.1-.9-.1-.6-.5-1.1-1-1.5-.5-.4-1.1-.6-1.7-.6-.8 0-1.6.3-2.1.9-.6.6-.9 1.3-.9 2.1h5.8zM165.3 18.2V28c-.1.8 0 1.5.3 2.2.2.7.6 1.4 1.1 1.9 1.6 1.6 4.4 1.7 5.3 1.7 1.7 0 3.4-.2 5.1-.4V28c-.5.1-1 .1-1.4.2-2.1 0-2.2-1.3-2.2-2.1v-7.8h3.6v-4.4h-3.5V7.5h-8.1v6.4H159V7.5h-8.1v6.4H148v4.4h2.6V28c-.1.8 0 1.5.3 2.2.2.7.6 1.4 1.1 1.9 1.6 1.6 4.4 1.7 5.3 1.7 1.7 0 3.4-.2 5.1-.4v-5.5c-.5.1-1 .1-1.4.2-2.1 0-2.2-1.3-2.2-2.1l.1-7.8h6.4z" class="st0"/></svg>